<svg width="24" height="14" viewBox="0 0 24 14" fill="none" xmlns="http://www.w3.org/2000/svg">
<path d="M11.903 12.9938L12.0979 13.0036C18.6018 13.0036 17.8215 8.7762 24.0004 6.04439C20.3583 6.04439 16.5208 0.996399 14.3744 0.996399C12.2279 0.996399 12.0979 3.16807 12.0979 3.16807L12.0595 3.35533C12.0595 3.35533 11.773 0.996801 9.62653 0.996801C7.48012 0.996801 3.64258 6.02472 0.000488281 6.02472C6.17943 8.75648 5.39868 12.9938 11.903 12.9938ZM18.456 6.15855C15.9196 6.77641 15.0901 8.17502 12.1065 8.17502C9.25286 8.17502 6.76519 6.15855 5.75698 6.15855C5.75653 6.15855 15.5288 6.2723 18.456 6.15855Z" fill="#D80027"/>
</svg>
