<?xml version="1.0" encoding="UTF-8" standalone="no"?>
<!-- Created with Inkscape (http://www.inkscape.org/) -->

<svg
   xmlns:dc="http://purl.org/dc/elements/1.1/"
   xmlns:cc="http://creativecommons.org/ns#"
   xmlns:rdf="http://www.w3.org/1999/02/22-rdf-syntax-ns#"
   xmlns:svg="http://www.w3.org/2000/svg"
   xmlns="http://www.w3.org/2000/svg"
   xmlns:sodipodi="http://sodipodi.sourceforge.net/DTD/sodipodi-0.dtd"
   xmlns:inkscape="http://www.inkscape.org/namespaces/inkscape"
   version="1.1"
   id="svg10"
   width="246"
   height="153"
   viewBox="0 0 246 153"
   sodipodi:docname="DespindoTabu.svg"
   inkscape:version="0.92.3 (2405546, 2018-03-11)">
  <metadata
     id="metadata16">
    <rdf:RDF>
      <cc:Work
         rdf:about="">
        <dc:format>image/svg+xml</dc:format>
        <dc:type
           rdf:resource="http://purl.org/dc/dcmitype/StillImage" />
        <dc:title></dc:title>
      </cc:Work>
    </rdf:RDF>
  </metadata>
  <defs
     id="defs14" />
  <sodipodi:namedview
     pagecolor="#ffffff"
     bordercolor="#666666"
     borderopacity="1"
     objecttolerance="10"
     gridtolerance="10"
     guidetolerance="10"
     inkscape:pageopacity="0"
     inkscape:pageshadow="2"
     inkscape:window-width="1920"
     inkscape:window-height="986"
     id="namedview12"
     showgrid="false"
     inkscape:zoom="4.9869281"
     inkscape:cx="114.12681"
     inkscape:cy="109.86264"
     inkscape:window-x="-11"
     inkscape:window-y="-11"
     inkscape:window-maximized="1"
     inkscape:current-layer="svg10" />
  <path
     style="fill:#000000"
     d="m 93.482288,134.61331 c -1.430649,-2.18344 -1.393076,-3.20432 0.441221,-11.98822 1.102772,-5.28084 3.596117,-13.0452 5.540766,-17.25414 C 101.40892,101.16201 103,97.556711 103,97.359168 103,97.161626 100.04844,97 96.440983,97 92.322949,97 90.111972,96.627843 90.5,96 c 0.339919,-0.55 3.235632,-1 6.434918,-1 h 5.816882 l 4.3741,-7.75 c 3.91141,-6.930201 4.71789,-7.783147 7.6241,-8.063358 3.52379,-0.339758 4.2181,1.033066 1.88879,3.734617 -2.54971,2.957168 -6.63761,10.746588 -5.98324,11.400957 0.35871,0.358714 2.45187,0.364428 4.65147,0.0127 2.83714,-0.453677 3.79753,-0.313094 3.30502,0.483798 -0.38183,0.617818 -2.92574,1.419325 -5.65314,1.781127 -2.72739,0.361802 -4.9589,1.059017 -4.9589,1.549368 0,0.490351 -1.81397,4.727751 -4.03104,9.416431 -2.21707,4.68869 -3.76551,8.95452 -3.44098,9.47963 C 100.85251,117.57037 100.61492,118 100,118 c -0.614919,0 -0.849431,0.43461 -0.521139,0.9658 0.328292,0.53118 -0.14016,3.50117 -1.041006,6.59997 -2.65289,9.12563 -0.628632,8.66857 7.789825,-1.75885 4.13261,-5.11881 8.69454,-11.2066 10.13763,-13.52842 2.70231,-4.34782 7.45676,-7.65015 9.29412,-6.45548 0.57264,0.37234 1.57192,1.68493 2.22064,2.91686 0.9819,1.8647 1.4873,2.04764 3.01723,1.09218 2.78122,-1.7369 5.48947,-0.31273 4.62116,2.43009 -3.78831,11.96648 -4.19962,17.37797 -1.12701,14.82794 3.48476,-2.89209 6.87792,-9.5576 9.10857,-17.89279 2.45086,-9.158088 9.76633,-26.064874 11.86965,-27.431987 0.62168,-0.404078 0.76219,-0.741578 0.31224,-0.75 -0.98346,-0.01841 3.10963,-6.011905 5.28137,-7.73351 2.32733,-1.844935 5.84017,-1.517582 7.00154,0.652456 3.97377,7.425071 -4.46533,24.661526 -15.82191,32.315461 -1.71062,1.1529 -2.72948,3.32491 -3.71487,7.91944 -1.93612,9.02742 -1.77613,9.61145 1.42311,5.19502 3.2648,-4.50692 8.72448,-9.36418 10.52558,-9.36418 1.88743,0 3.62327,2.17183 3.62327,4.53333 0,5.19955 3.75384,3.4783 7.69162,-3.52685 2.93017,-5.21264 4.95727,-6.75759 6.64805,-5.06681 0.67364,0.67364 -0.0412,3.15149 -2.16722,7.51174 -6.24861,12.81554 -2.07733,12.69464 6.94895,-0.20141 1.77256,-2.5325 3.7635,-4.25 4.92664,-4.25 1.99519,0 2.70447,2.41689 1.01559,3.46067 -0.515,0.31829 -0.90225,1.35735 -0.86056,2.30902 0.0417,0.95167 -0.26072,2.96781 -0.67204,4.48031 -1.03084,3.79062 0.15689,3.45609 5.32557,-1.5 4.54459,-4.35767 4.68354,-3.73167 0.44418,2.00105 -2.79444,3.7788 -7.49131,6.4968 -9.73743,5.63488 C 182.55388,122.99857 182,121.53471 182,119.25417 v -3.53184 l -4.3972,4.72186 c -3.26605,3.50718 -5.00245,4.63619 -6.75,4.38883 -1.97616,-0.27971 -2.43284,-1.04755 -2.8528,-4.7965 l -0.5,-4.46348 -4.91842,5.76843 c -5.44445,6.38537 -7.66363,7.94801 -10.00914,7.04796 -2.32529,-0.8923 -1.91237,-2.93668 0.9753,-4.82875 4.9043,-3.21343 8.66671,-12.56068 5.05585,-12.56068 -2.07887,0 -6.97874,6.02352 -10.11596,12.43575 -3.16506,6.46916 -5.35683,6.98448 -7.08233,1.66519 l -1.09471,-3.3747 -2.74408,3.59767 c -3.68562,4.8321 -6.39019,5.61206 -8.86451,2.55641 -1.53536,-1.8961 -1.81209,-3.38054 -1.37523,-7.37704 0.54052,-4.94483 0.52721,-4.97435 -1.13993,-2.52692 -3.52585,5.17612 -7.46196,9.02364 -9.23142,9.02364 -2.15483,0 -3.04889,-1.22193 -3.8849,-5.3096 l -0.61033,-2.98418 -2.88067,4.39689 C 104.56931,130.75042 98.880663,137 96.929935,137 c -1.036106,0 -2.587547,-1.07401 -3.447647,-2.38669 z M 126.6049,112.32909 c 0.75844,-2.87744 0.17944,-5.56869 -1.30436,-6.06271 -2.16056,-0.71934 -8.20885,13.45492 -6.74916,15.81675 0.73801,1.19414 7.24509,-6.68692 8.05352,-9.75404 z M 160.39673,93.095277 C 165.22593,86.775404 167,82.42693 167,76.909794 167,71.987055 165.90506,71.444982 162.70921,74.785558 160.71491,76.870182 151,99.090625 151,101.56748 c 0,1.49339 5.72808,-3.671118 9.39673,-8.472203 z M 128.31537,89.9837 C 125.64172,88.917869 124,86.034125 124,82.403599 c 0,-3.567411 4.44652,-11.093155 7.04078,-11.916542 1.11883,-0.355104 3.14801,-2.409961 4.50928,-4.56635 2.87163,-4.548957 6.19397,-5.176681 9.56368,-1.806965 1.81088,1.810878 2.01857,2.831188 1.44952,7.120909 l -0.66422,5.007166 3.05048,-0.447716 c 4.07991,-0.598804 3.91581,0.856931 -0.19847,1.760578 -2.1182,0.465235 -5.16352,2.734621 -8.75,6.520546 -5.82144,6.145166 -8.14494,7.319965 -11.68568,5.908475 z m 7.83947,-6.025807 C 140.26303,79.639281 140.90829,78 138.5,78 c -0.825,0 -2.41708,-0.917077 -3.53795,-2.03795 l -2.03795,-2.03795 -2.55368,5.577974 c -4.16985,9.108153 -0.97925,11.565915 5.78442,4.455819 z m 6.74613,-12.751554 c 1.0873,-4.077204 1.13966,-5.565706 0.22785,-6.477523 -1.79593,-1.795928 -4.24948,0.240562 -5.96783,4.953409 -1.79756,4.930091 -1.02572,7.579861 2.07917,7.137912 1.78469,-0.254034 2.54059,-1.41319 3.66081,-5.613798 z M 89.530966,85.687603 c -1.387067,-2.116931 -1.400814,-3.18397 -0.126018,-9.781865 0.786985,-4.073156 2.574622,-10.986436 3.972527,-15.362845 1.397904,-4.376409 2.441191,-8.057561 2.318413,-8.180338 -0.122777,-0.122777 -2.110965,0.982921 -4.418197,2.457107 -3.843429,2.455727 -4.198432,3.040648 -4.236328,6.979998 -0.07851,8.161228 -4.832076,12.727653 -11.852264,11.385658 -3.251868,-0.621634 -5.632563,-4.488181 -4.298385,-6.981116 1.150757,-2.150209 7.250208,-7.751176 9.119625,-8.374315 0.937936,-0.312645 0.934251,-2.074466 -0.01667,-7.969167 -1.327327,-8.228049 -0.472264,-11.860996 2.791511,-11.860415 1.451198,2.59e-4 1.723455,1.077317 1.771014,7.006198 0.06853,8.543746 1.000598,9.786275 5.5789,7.4372 6.214303,-3.188489 8.333507,-5.479093 9.888816,-10.688614 1.69483,-5.676882 3.28767,-6.909926 4.93939,-3.823661 0.87712,1.638914 0.48284,3.797865 -1.95499,10.704739 -1.67953,4.758479 -2.88257,8.822906 -2.67342,9.032061 0.20916,0.209155 3.10604,-3.793133 6.43752,-8.893973 9.33405,-14.291415 12.79133,-16.555119 15.34883,-10.049881 1.04065,2.646991 0.49525,6.632385 -1.56985,11.471273 -0.6504,1.523996 -0.39646,1.574611 2.50851,0.5 2.11212,-0.781318 3.706,-2.321872 4.59955,-4.445647 0.8708,-2.069697 2.06742,-3.25 3.29495,-3.25 2.96802,0 3.21265,1.413678 1.064,6.148748 C 129.71508,54.224695 129.4657,57 131.31291,57 c 2.6135,0 6.64854,-5.664524 8.64927,-12.142115 2.23108,-7.223408 4.35442,-9.941283 6.27005,-8.025656 0.86329,0.863287 0.63705,2.078694 -0.91351,4.907618 -2.3252,4.242205 -3.74814,9.295695 -2.58777,9.190303 0.42298,-0.03842 2.7961,-2.850917 5.2736,-6.25 4.50128,-6.175671 8.17416,-8.26278 9.31392,-5.29262 0.31516,0.821301 -0.50773,3.085851 -1.82865,5.032334 -2.44323,3.600295 -5.03919,11.364102 -4.11035,12.292938 0.8535,0.853504 9.45538,-6.709519 11.62636,-10.222237 2.73586,-4.42672 4.77378,-5.029627 8.26818,-2.446104 1.58576,1.172408 3.00929,1.979526 3.16339,1.793595 C 174.5915,45.652125 176.43796,41 178.54065,35.5 c 5.33468,-13.953896 11.27808,-19.538416 15.88792,-14.928571 0.86429,0.864285 1.56155,2.101785 1.54947,2.75 -0.0491,2.635721 -4.31948,10.367573 -9.60442,17.389616 -3.08422,4.097968 -6.18804,8.651924 -6.89737,10.119903 -1.73985,3.600661 -2.92843,14.771555 -1.6554,15.55833 0.94736,0.585499 5.35717,-4.278079 11.68672,-12.889278 1.61708,-2.2 5.42691,-6.527465 8.46629,-9.616588 3.03938,-3.089123 6.30924,-6.576623 7.26635,-7.75 2.18245,-2.675568 5.8985,-2.742603 8.24591,-0.148749 1.4401,1.591295 1.67582,3.000218 1.18926,7.108469 l -0.60684,5.123808 2.96573,-0.435277 C 218.66542,47.54226 220,47.670304 220,48.066204 220,48.981013 217.3789,50 215.02578,50 c -0.99586,0 -3.46768,2.17284 -5.49294,4.828533 -4.32368,5.669578 -8.70709,8.568326 -11.57862,7.656937 -2.85317,-0.905562 -5.94889,-4.487869 -5.98353,-6.924031 -0.0262,-1.843558 -0.31688,-1.73759 -2.75,1.002593 -1.49638,1.685217 -4.15038,5.139325 -5.89778,7.675794 -1.7474,2.53647 -4.09958,5.105469 -5.22708,5.708887 C 174.99005,71.610877 172,68.166771 172,62.927196 v -4.072804 l -3.72784,3.072804 C 166.22184,63.617238 163.75722,65 162.79521,65 c -2.34408,0 -5.16354,-4.48352 -4.47506,-7.116259 0.53975,-2.063994 0.49597,-2.059619 -1.89833,0.18971 -2.03284,1.909747 -2.91737,2.139297 -5.18632,1.345926 -2.30832,-0.807135 -2.78309,-1.608513 -3.04025,-5.131724 -0.17587,-2.409499 0.37822,-5.573435 1.31019,-7.481436 L 151.12039,43.5 149.0103,46 c -1.16054,1.375 -3.24591,4.231281 -4.63415,6.34729 -1.94347,2.962314 -3.0014,3.722467 -4.59917,3.30464 -1.43243,-0.374589 -2.67082,0.214692 -3.99862,1.90271 C 134.72042,58.899588 133.06594,60 132.10173,60 129.91689,60 126,55.946558 126,53.685549 126,51.471695 124.83208,51.557645 121.72713,54 c -1.39842,1.1 -2.96367,2 -3.47832,2 -0.51466,0 -2.83296,2.25 -5.1518,5 -4.54081,5.385133 -6.43502,6.10546 -8.06183,3.065741 C 103.67574,61.525588 103.72859,61 105.34346,61 c 3.42777,0 14.99302,-18.063517 12.90325,-20.153294 -1.41351,-1.413501 -5.44708,2.385149 -11.31214,10.653294 -6.90228,9.730353 -11.482926,19.707669 -12.990359,28.294925 -0.704316,4.012208 -1.635123,7.514048 -2.06846,7.781865 -0.433338,0.267818 -1.488491,-0.582316 -2.344785,-1.889187 z M 77.455198,69.378819 C 79.071509,68.758582 82,64.035962 82,62.04966 c 0,-1.912818 -2.510271,-1.089854 -5.777139,1.893969 -4.728702,4.319002 -4.018751,7.450221 1.232337,5.43519 z m 91.093492,-9.983756 c 4.37986,-3.34068 6.09361,-8.765841 3.85048,-12.1893 -1.48118,-2.260562 -1.64656,-2.291851 -3.45644,-0.653939 -1.04545,0.946121 -2.81025,4.150891 -3.92177,7.121711 -3.34471,8.939531 -2.49599,10.316045 3.52773,5.721528 z m 34.07629,-1.167299 c 3.53795,-2.876606 5.93299,-7.264885 4.46141,-8.174369 -0.89896,-0.555589 -0.68583,-0.924881 0.75055,-1.300503 1.28544,-0.336149 2.39142,-1.91262 3.07896,-4.388738 C 212.55592,38.457713 212.31301,36 210.08921,36 c -2.35348,0 -6.55521,8.109997 -5.76577,11.128829 0.50763,1.94118 0.43472,1.962287 -1.3134,0.380253 -1.7413,-1.575848 -1.91846,-1.548718 -2.99257,0.458266 -2.02566,3.784991 -4.01968,10.220052 -3.45166,11.139131 0.87612,1.417594 3.74699,1.001254 6.05917,-0.878715 z M 188.59669,34.771414 C 192.60346,28.254522 194.16721,22 191.78977,22 c -1.86301,0 -5.81484,7.314751 -9.18431,17 l -2.60924,7.5 2.53919,-3 c 1.39655,-1.65 4.12412,-5.577864 6.06128,-8.728586 z M 17.994494,69.493366 c -0.860286,-1.036581 -1.040487,-3.142506 -0.577588,-6.75 0.740774,-5.773059 6.267743,-26.603303 7.488594,-28.223294 0.422808,-0.56104 1.77673,-3.778625 3.008714,-7.150191 1.231984,-3.371565 3.52122,-7.646565 5.08719,-9.5 2.706139,-3.202903 2.934956,-3.284124 4.617895,-1.639179 1.693357,1.655129 1.678521,1.895291 -0.339775,5.5 -2.89934,5.178266 -10.283637,23.916692 -10.261409,26.039396 0.01,0.951446 1.273759,-0.546857 2.808435,-3.329562 4.716015,-8.551175 13.405179,-20.642584 18.993554,-26.430484 L 54.140208,12.5 56.070104,14.860784 C 57.565272,16.689778 58,18.787945 58,24.175211 58,29.847574 57.265768,33.077273 54.015245,41.703122 48.026698,57.594817 41.164487,67 35.558133,67 33.056327,67 28,63.502802 28,61.772432 c 0,-0.595324 0.822933,-0.337663 1.828741,0.57258 2.72121,2.462662 4.786378,2.026244 7.547743,-1.595012 C 45.104867,50.614993 56.348057,18 52.113459,18 50.914934,18 41.089195,30.168153 36.674006,37.120151 29.763624,48.000994 24.464093,59.698555 22.57076,68.25 c -0.671619,3.033439 -2.645538,3.56975 -4.576266,1.243366 z m 39.042284,-5.954218 c -2.070137,-2.20356 -2.182846,-2.772296 -1.077994,-5.439643 0.67862,-1.638335 0.944675,-3.446695 0.591231,-4.018578 -1.122337,-1.81598 1.66868,-9.006675 4.865839,-12.536208 3.955766,-4.367004 6.645996,-5.124972 9.625816,-2.71206 2.136757,1.730241 2.217017,2.128601 1.014014,5.032909 -0.766878,1.851406 -3.276244,4.430356 -6.076132,6.244622 -3.449989,2.235516 -4.937099,3.927544 -5.374639,6.115243 -1.015426,5.077133 -0.726795,6.776768 1.145087,6.742966 2.187995,-0.03951 5.614963,-3.090001 10.670827,-9.498557 5.52476,-7.002906 5.579186,-7.055779 5.57907,-5.419842 -5.7e-5,0.7975 -3.161639,5.1625 -7.025739,9.7 -7.739156,9.087866 -9.968475,10.013854 -13.93738,5.789148 z m 12.77615,-22.145951 c -0.549933,-2.634028 -2.249276,-1.810284 -4.546478,2.203873 -3.392556,5.928191 -2.735754,7.466038 1.323536,3.098949 1.944729,-2.09219 3.395053,-4.47846 3.222942,-5.302822 z m 61.738742,-2.309598 c -0.29758,-0.481493 0.12878,-2.159778 0.94748,-3.729521 0.81869,-1.569743 1.4913,-3.61502 1.49469,-4.545061 0.009,-2.479303 1.96956,-3.274192 3.73102,-1.51273 1.37724,1.377247 1.31972,1.832367 -0.56642,4.481202 -1.15464,1.621547 -1.90811,3.139507 -1.67437,3.373244 0.23373,0.233737 -0.4337,0.961227 -1.48319,1.616643 -1.04949,0.655417 -2.15163,0.797717 -2.44921,0.316223 z"
     id="path20"
     inkscape:connector-curvature="0" />
</svg>
